<?xml version="1.0" encoding="utf-8"?>
<!-- Generator: Adobe Illustrator 19.0.0, SVG Export Plug-In . SVG Version: 6.00 Build 0)  -->
<svg version="1.1" id="Warstwa_1" xmlns="http://www.w3.org/2000/svg" xmlns:xlink="http://www.w3.org/1999/xlink" x="0px" y="0px"
	 viewBox="-163 255 284 284" style="enable-background:new -163 255 284 284;" xml:space="preserve">
<style type="text/css">
	.st0{fill:#FFFFFF;}
	.st1{fill:#E5E5E5;}
</style>
<rect x="-163" y="255" class="st0" width="284" height="284"/>
<g transform="translate(-5.000000, -5.000000)">
	<path class="st1" d="M-160,260h288v284h-288V260L-160,260z M16.6,378.7l-3.8-21.9l-77.7,13.4l11.4,64l7.7-1.3v5.5h78.9v-59.8H16.6
		L16.6,378.7z M-45.8,426.5l-2.5,0.5l-9.3-51.6l65.1-11.3l2.6,14.6h-56V426.5L-45.8,426.5L-45.8,426.5z M26.7,432.2h-66.1V385h66.1
		V432.2L26.7,432.2z M-35.1,389.2v35l13.4-8.8l8.3,5.1l20.2-21.9l2.6,1.1l13,14.9v-25.4H-35.1L-35.1,389.2L-35.1,389.2z
		 M-22.3,404.3c-3.1,0-5.7-2.6-5.7-5.6s2.6-5.6,5.7-5.6c3.1,0,5.7,2.6,5.7,5.6C-16.6,401.7-19.2,404.3-22.3,404.3L-22.3,404.3
		L-22.3,404.3z"/>
</g>
</svg>
